<svg width="1366" height="1117" viewBox="0 0 1366 1117" fill="none" xmlns="http://www.w3.org/2000/svg">
<g clip-path="url(#clip0_403_2)">
<rect width="1366" height="1117" fill="white"/>
<path d="M281 759C32.4719 759 -169 557.528 -169 309C-169 60.4719 32.4719 -141 281 -141C529.528 -141 731 60.4719 731 309C731 557.528 529.528 759 281 759Z" fill="url(#paint0_linear_403_2)"/>
<path d="M1176 1230C1010.31 1230 876 1095.69 876 930C876 764.315 1010.31 630 1176 630C1341.69 630 1476 764.315 1476 930C1476 1095.69 1341.69 1230 1176 1230Z" fill="url(#paint1_linear_403_2)"/>
<path d="M1321 806C1235.4 806 1166 736.604 1166 651C1166 565.396 1235.4 496 1321 496C1406.6 496 1476 565.396 1476 651C1476 736.604 1406.6 806 1321 806Z" fill="url(#paint2_linear_403_2)"/>
<path d="M638.024 723.984C638.52 724 638.984 724.016 639.416 724.032C639.864 724.032 640.248 724.032 640.568 724.032C640.824 724.032 641.216 724.032 641.744 724.032C642.288 724.032 642.92 724.032 643.64 724.032C644.36 724.032 645.128 724.032 645.944 724.032C646.76 724.032 647.576 724.032 648.392 724.032C649.224 724.032 650 724.032 650.72 724.032C651.44 724.032 652.064 724.032 652.592 724.032C653.136 724.032 653.528 724.032 653.768 724.032C654.072 724.032 654.432 724.032 654.848 724.032C655.28 724.016 655.712 724 656.144 723.984C656.128 724.352 656.112 724.744 656.096 725.16C656.096 725.56 656.096 725.944 656.096 726.312C656.096 726.536 656.096 726.888 656.096 727.368C656.096 727.832 656.096 728.392 656.096 729.048C656.096 729.688 656.096 730.376 656.096 731.112C656.096 731.832 656.096 732.56 656.096 733.296C656.096 734.032 656.096 734.728 656.096 735.384C656.096 736.024 656.096 736.584 656.096 737.064C656.096 737.528 656.096 737.864 656.096 738.072C656.096 738.312 656.096 738.616 656.096 738.984C656.112 739.336 656.12 739.696 656.12 740.064C656.12 740.416 656.12 740.728 656.12 741C656.136 741.256 656.144 741.392 656.144 741.408H652.832C652.832 741.376 652.832 741.184 652.832 740.832C652.848 740.464 652.856 740.032 652.856 739.536C652.872 739.04 652.88 738.576 652.88 738.144C652.88 737.936 652.88 737.584 652.88 737.088C652.88 736.592 652.88 736.008 652.88 735.336C652.88 734.664 652.88 733.952 652.88 733.2C652.88 732.448 652.88 731.712 652.88 730.992C652.88 730.272 652.88 729.616 652.88 729.024C652.88 728.432 652.88 727.96 652.88 727.608C652.88 727.256 652.88 727.08 652.88 727.08H641.288C641.288 727.08 641.288 727.256 641.288 727.608C641.288 727.96 641.288 728.432 641.288 729.024C641.288 729.6 641.288 730.256 641.288 730.992C641.288 731.712 641.288 732.448 641.288 733.2C641.288 733.936 641.288 734.648 641.288 735.336C641.288 736.008 641.288 736.592 641.288 737.088C641.288 737.584 641.288 737.936 641.288 738.144C641.288 738.432 641.288 738.76 641.288 739.128C641.288 739.48 641.288 739.824 641.288 740.16C641.304 740.496 641.312 740.776 641.312 741C641.312 741.24 641.312 741.376 641.312 741.408H638C638 741.376 638 741.24 638 741C638.016 740.76 638.024 740.464 638.024 740.112C638.04 739.76 638.048 739.4 638.048 739.032C638.064 738.664 638.072 738.336 638.072 738.048C638.072 737.84 638.072 737.504 638.072 737.04C638.072 736.56 638.072 735.992 638.072 735.336C638.072 734.68 638.072 733.992 638.072 733.272C638.072 732.536 638.072 731.8 638.072 731.064C638.072 730.328 638.072 729.64 638.072 729C638.072 728.344 638.072 727.784 638.072 727.32C638.072 726.856 638.072 726.52 638.072 726.312C638.072 725.976 638.072 725.592 638.072 725.16C638.072 724.712 638.056 724.32 638.024 723.984ZM654.08 737.04V740.112H639.656V737.04H654.08ZM677.696 721.344C677.904 721.632 678.12 721.976 678.344 722.376C678.584 722.776 678.816 723.176 679.04 723.576C679.264 723.976 679.448 724.328 679.592 724.632L677.672 725.448C677.432 724.952 677.136 724.392 676.784 723.768C676.448 723.128 676.12 722.576 675.8 722.112L677.696 721.344ZM680.528 720.264C680.736 720.552 680.96 720.904 681.2 721.32C681.456 721.72 681.696 722.12 681.92 722.52C682.16 722.904 682.344 723.24 682.472 723.528L680.576 724.344C680.32 723.832 680.016 723.264 679.664 722.64C679.312 722.016 678.968 721.48 678.632 721.032L680.528 720.264ZM679.856 726.624C679.712 726.848 679.568 727.12 679.424 727.44C679.28 727.744 679.16 728.048 679.064 728.352C678.856 729.056 678.56 729.864 678.176 730.776C677.792 731.672 677.328 732.6 676.784 733.56C676.24 734.52 675.6 735.456 674.864 736.368C673.728 737.744 672.392 738.992 670.856 740.112C669.336 741.232 667.448 742.24 665.192 743.136L662.36 740.592C663.992 740.096 665.4 739.544 666.584 738.936C667.768 738.312 668.8 737.64 669.68 736.92C670.56 736.2 671.344 735.44 672.032 734.64C672.576 734.016 673.08 733.312 673.544 732.528C674.024 731.744 674.424 730.96 674.744 730.176C675.08 729.392 675.312 728.704 675.44 728.112H667.352L668.456 725.4C668.664 725.4 669.008 725.4 669.488 725.4C669.968 725.4 670.504 725.4 671.096 725.4C671.688 725.4 672.272 725.4 672.848 725.4C673.44 725.4 673.96 725.4 674.408 725.4C674.856 725.4 675.152 725.4 675.296 725.4C675.68 725.4 676.056 725.376 676.424 725.328C676.808 725.264 677.128 725.192 677.384 725.112L679.856 726.624ZM672.032 722.832C671.744 723.248 671.464 723.696 671.192 724.176C670.92 724.656 670.712 725.024 670.568 725.28C670.024 726.24 669.352 727.24 668.552 728.28C667.752 729.304 666.848 730.304 665.84 731.28C664.848 732.24 663.776 733.12 662.624 733.92L659.936 731.904C660.992 731.264 661.92 730.6 662.72 729.912C663.52 729.224 664.216 728.544 664.808 727.872C665.4 727.184 665.912 726.528 666.344 725.904C666.776 725.264 667.136 724.688 667.424 724.176C667.616 723.888 667.816 723.504 668.024 723.024C668.248 722.528 668.408 722.08 668.504 721.68L672.032 722.832ZM684.488 731.664C686.648 731.104 688.6 730.456 690.344 729.72C692.104 728.968 693.648 728.184 694.976 727.368C695.808 726.856 696.64 726.272 697.472 725.616C698.32 724.944 699.112 724.256 699.848 723.552C700.6 722.848 701.232 722.176 701.744 721.536L704.336 724.008C703.6 724.728 702.792 725.456 701.912 726.192C701.048 726.928 700.144 727.632 699.2 728.304C698.256 728.976 697.32 729.592 696.392 730.152C695.48 730.68 694.456 731.224 693.32 731.784C692.2 732.344 691.016 732.872 689.768 733.368C688.52 733.864 687.264 734.304 686 734.688L684.488 731.664ZM694.472 728.904L697.88 728.112V738.912C697.88 739.264 697.888 739.648 697.904 740.064C697.92 740.48 697.944 740.864 697.976 741.216C698.008 741.584 698.048 741.864 698.096 742.056H694.304C694.336 741.864 694.36 741.584 694.376 741.216C694.408 740.864 694.432 740.48 694.448 740.064C694.464 739.648 694.472 739.264 694.472 738.912V728.904ZM712.784 722.76C713.2 723.048 713.688 723.4 714.248 723.816C714.808 724.232 715.384 724.688 715.976 725.184C716.584 725.664 717.152 726.136 717.68 726.6C718.208 727.064 718.64 727.48 718.976 727.848L716.528 730.344C716.224 730.008 715.824 729.608 715.328 729.144C714.832 728.68 714.296 728.2 713.72 727.704C713.144 727.208 712.576 726.736 712.016 726.288C711.456 725.84 710.96 725.464 710.528 725.16L712.784 722.76ZM709.784 738.744C711.032 738.568 712.208 738.32 713.312 738C714.416 737.68 715.44 737.312 716.384 736.896C717.328 736.48 718.192 736.048 718.976 735.6C720.336 734.784 721.584 733.856 722.72 732.816C723.856 731.776 724.848 730.696 725.696 729.576C726.544 728.44 727.216 727.336 727.712 726.264L729.584 729.648C728.976 730.72 728.224 731.792 727.328 732.864C726.448 733.936 725.448 734.96 724.328 735.936C723.208 736.896 722 737.76 720.704 738.528C719.888 739.024 719.008 739.496 718.064 739.944C717.12 740.376 716.12 740.76 715.064 741.096C714.024 741.448 712.936 741.72 711.8 741.912L709.784 738.744Z" fill="white"/>
</g>
<defs>
<linearGradient id="paint0_linear_403_2" x1="659.5" y1="65.5" x2="-42" y2="628.5" gradientUnits="userSpaceOnUse">
<stop stop-color="#1E8697"/>
<stop offset="1" stop-color="#61CFF0"/>
</linearGradient>
<linearGradient id="paint1_linear_403_2" x1="1428.33" y1="767.667" x2="960.667" y2="1143" gradientUnits="userSpaceOnUse">
<stop stop-color="#1E8697"/>
<stop offset="1" stop-color="#61CFF0"/>
</linearGradient>
<linearGradient id="paint2_linear_403_2" x1="1451.37" y1="567.128" x2="1209.74" y2="761.05" gradientUnits="userSpaceOnUse">
<stop stop-color="#1E8697"/>
<stop offset="1" stop-color="#61CFF0"/>
</linearGradient>
<clipPath id="clip0_403_2">
<rect width="1366" height="1117" fill="white"/>
</clipPath>
</defs>
</svg>
