<svg width="27" height="27" viewBox="0 0 27 27" fill="none" xmlns="http://www.w3.org/2000/svg">
<path d="M27 13.5C27 6.04336 20.9566 0 13.5 0C6.04336 0 0 6.04336 0 13.5C0 20.9566 6.04336 27 13.5 27C20.9566 27 27 20.9566 27 13.5ZM14.291 7.11914C14.7867 6.62344 15.5883 6.62344 16.0787 7.11914C16.5691 7.61484 16.5744 8.41641 16.0787 8.90684L11.4908 13.4947L16.0787 18.0826C16.5744 18.5783 16.5744 19.3799 16.0787 19.8703C15.583 20.3607 14.7814 20.366 14.291 19.8703L8.80664 14.3965C8.31094 13.9008 8.31094 13.0992 8.80664 12.6088L14.291 7.11914Z" fill="white"/>
</svg>
